<svg width="64" height="64" viewBox="0 0 64 64" fill="none" xmlns="http://www.w3.org/2000/svg">
<rect width="64" height="64" rx="4.17391" fill="#0D1116"/>
<path d="M32.1024 24.5083V24.5129L32.1001 24.5106L32.1024 24.5083Z" stroke="#EC1E24" stroke-width="0.198687" stroke-miterlimit="10"/>
<path d="M32.102 24.5085H32.1002L32.0965 24.5123L25.6309 29.0766L19.5817 33.3473L7 42.2288V14.3168C7 11.1537 10.5664 9.30645 13.1496 11.1296L25.6309 19.9405L32.1002 24.5067H32.102V24.5085Z" fill="#16ADE9"/>
<path d="M25.6309 37.6179V49.7164C25.6309 53.0355 21.8899 54.9739 19.1784 53.0597L8.82499 45.7504C7.68019 44.9439 7 43.63 7 42.2287L19.5817 33.3472L25.6309 37.6179Z" fill="#23EDE2"/>
<path d="M44.6171 33.347L38.5678 37.6177L33.6448 41.093C32.7193 41.7472 31.4816 41.7472 30.5542 41.093L25.6293 37.6177L19.5801 33.347L25.6293 29.0763L32.0949 24.512H32.0986H32.1004L38.566 29.0763L44.6152 33.347H44.6171Z" fill="#2732BC"/>
<path d="M32.1003 24.5106L32.0957 24.5129V24.5083L32.1003 24.5106Z" stroke="#EC1E24" stroke-width="0.198687" stroke-miterlimit="10"/>
<path d="M57.1977 14.3168V42.2288L44.6161 33.3473L38.5668 29.0766L32.1013 24.5123H32.0994L32.0957 24.5085H32.0994L38.5668 19.9405L51.0481 11.1296C53.6314 9.30645 57.1977 11.1537 57.1977 14.3168Z" fill="#6926DC"/>
<path d="M57.1983 42.2287C57.1983 43.63 56.5181 44.9439 55.3733 45.7504L45.0199 53.0597C42.3103 54.9739 38.5674 53.0355 38.5674 49.7164V37.6179L44.6166 33.3472L57.1983 42.2287Z" fill="#1982DC"/>
</svg>
