<svg width="120" height="44" viewBox="0 0 120 44" fill="none" xmlns="http://www.w3.org/2000/svg">
<path d="M26.0736 15.9722V15.9757L26.0718 15.9739L26.0736 15.9722Z" stroke="#EC1E24" stroke-width="0.142806" stroke-miterlimit="10"/>
<path d="M26.0735 15.9721H26.0721L26.0692 15.975L21.101 19.4823L16.4526 22.764L6.78467 29.5887V8.14063C6.78467 5.71007 9.52512 4.29058 11.5101 5.69151L21.101 12.4619L26.0721 15.9707H26.0735V15.9721Z" fill="#16ADE9"/>
<path d="M21.101 26.0456V35.3423C21.101 37.8928 18.2263 39.3823 16.1427 37.9114L8.18702 32.2948C7.30734 31.675 6.78467 30.6654 6.78467 29.5886L16.4526 22.7639L21.101 26.0456Z" fill="#23EDE2"/>
<path d="M35.69 22.7639L31.0417 26.0455L27.2587 28.716C26.5476 29.2187 25.5965 29.2187 24.8839 28.716L21.0995 26.0455L16.4512 22.7639L21.0995 19.4822L26.0677 15.9749H26.0706H26.072L31.0402 19.4822L35.6886 22.7639H35.69Z" fill="#2732BC"/>
<path d="M26.0724 15.9739L26.0688 15.9757V15.9722L26.0724 15.9739Z" stroke="#EC1E24" stroke-width="0.142806" stroke-miterlimit="10"/>
<path d="M45.3577 8.14063V29.5887L35.6897 22.764L31.0414 19.4823L26.0731 15.975H26.0717L26.0688 15.9721H26.0717L31.0414 12.4619L40.6322 5.69151C42.6172 4.29058 45.3577 5.71007 45.3577 8.14063Z" fill="#6926DC"/>
<path d="M45.3578 29.5886C45.3578 30.6654 44.8351 31.675 43.9555 32.2948L35.9997 37.9114C33.9176 39.3823 31.0415 37.8928 31.0415 35.3423V26.0456L35.6898 22.7639L45.3578 29.5886Z" fill="#1982DC"/>
<path d="M60.9057 18.4066H60.2289L65.4951 8.58405H67.0799V19.2981H65.4951V11.0768L65.8418 11.1594L61.401 19.2981H59.7336L55.2928 11.1759L55.6395 11.0933V19.2981H54.0547V8.58405H55.6395L60.9057 18.4066ZM76.9564 19.2981H75.3881V11.0603H76.9564V19.2981ZM75.4706 15.4186L75.4871 15.9138C75.4761 16.0569 75.4376 16.2715 75.3716 16.5577C75.3166 16.8328 75.2175 17.1355 75.0744 17.4656C74.9424 17.7958 74.7553 18.115 74.5131 18.4231C74.282 18.7313 73.9849 18.9844 73.6217 19.1825C73.2585 19.3806 72.8183 19.4797 72.301 19.4797C71.9488 19.4797 71.5856 19.4302 71.2114 19.3311C70.8482 19.2321 70.5126 19.067 70.2044 18.8359C69.8963 18.6047 69.6486 18.2911 69.4615 17.8949C69.2744 17.4877 69.1809 16.9814 69.1809 16.3761V11.0603H70.7657V16.0459C70.7657 16.5522 70.8427 16.9484 70.9968 17.2345C71.1619 17.5207 71.393 17.7243 71.6902 17.8453C71.9873 17.9664 72.323 18.0269 72.6972 18.0269C73.2695 18.0269 73.7482 17.8894 74.1334 17.6142C74.5297 17.3281 74.8378 16.9869 75.0579 16.5907C75.278 16.1835 75.4156 15.7928 75.4706 15.4186ZM78.7836 11.0603H80.3684V19.2981H78.7836V11.0603ZM83.505 10.8952C83.9673 10.8952 84.3855 10.9613 84.7597 11.0933C85.1339 11.2254 85.453 11.4235 85.7172 11.6877C85.9813 11.9408 86.1849 12.2599 86.328 12.6451C86.4821 13.0193 86.5591 13.4486 86.5591 13.9328V19.2981H84.9908V14.2795C84.9908 13.6302 84.8312 13.1459 84.512 12.8267C84.2039 12.4966 83.7306 12.3315 83.0923 12.3315C82.597 12.3315 82.1458 12.447 81.7386 12.6782C81.3314 12.9093 80.9957 13.2174 80.7316 13.6026C80.4784 13.9768 80.3244 14.4006 80.2693 14.8738L80.2528 13.9658C80.3079 13.5256 80.4234 13.1184 80.5995 12.7442C80.7866 12.37 81.0177 12.0453 81.2929 11.7702C81.579 11.484 81.9092 11.2694 82.2834 11.1264C82.6576 10.9723 83.0648 10.8952 83.505 10.8952ZM94.742 16.6237H96.2443C96.1563 17.163 95.9472 17.6472 95.617 18.0765C95.2868 18.5057 94.8521 18.8469 94.3128 19.1C93.7735 19.3531 93.1407 19.4797 92.4143 19.4797C91.5559 19.4797 90.791 19.2981 90.1197 18.9349C89.4483 18.5717 88.92 18.071 88.5348 17.4326C88.1496 16.7943 87.957 16.0514 87.957 15.204C87.957 14.3455 88.1441 13.5971 88.5183 12.9588C88.8925 12.3095 89.4098 11.8032 90.0701 11.44C90.7305 11.0768 91.4844 10.8952 92.3318 10.8952C93.2233 10.8952 93.9717 11.0713 94.577 11.4235C95.1823 11.7757 95.628 12.2985 95.9142 12.9918C96.2113 13.6742 96.3324 14.5271 96.2773 15.5507H89.5253C89.5804 16.0459 89.729 16.4861 89.9711 16.8713C90.2242 17.2565 90.5544 17.5592 90.9616 17.7793C91.3798 17.9994 91.8586 18.1095 92.3978 18.1095C93.0031 18.1095 93.5094 17.9719 93.9166 17.6968C94.3238 17.4216 94.599 17.0639 94.742 16.6237ZM92.3483 12.2489C91.6329 12.2489 91.0386 12.4415 90.5654 12.8267C90.0921 13.2009 89.7785 13.7017 89.6244 14.329H94.6925C94.6485 13.6577 94.4064 13.1459 93.9661 12.7937C93.5259 12.4305 92.9866 12.2489 92.3483 12.2489ZM104.055 16.6237H105.557C105.469 17.163 105.26 17.6472 104.93 18.0765C104.599 18.5057 104.165 18.8469 103.625 19.1C103.086 19.3531 102.453 19.4797 101.727 19.4797C100.868 19.4797 100.104 19.2981 99.4322 18.9349C98.7608 18.5717 98.2325 18.071 97.8473 17.4326C97.4621 16.7943 97.2695 16.0514 97.2695 15.204C97.2695 14.3455 97.4566 13.5971 97.8308 12.9588C98.205 12.3095 98.7223 11.8032 99.3826 11.44C100.043 11.0768 100.797 10.8952 101.644 10.8952C102.536 10.8952 103.284 11.0713 103.889 11.4235C104.495 11.7757 104.941 12.2985 105.227 12.9918C105.524 13.6742 105.645 14.5271 105.59 15.5507H98.8378C98.8929 16.0459 99.0415 16.4861 99.2836 16.8713C99.5367 17.2565 99.8669 17.5592 100.274 17.7793C100.692 17.9994 101.171 18.1095 101.71 18.1095C102.316 18.1095 102.822 17.9719 103.229 17.6968C103.636 17.4216 103.911 17.0639 104.055 16.6237ZM101.661 12.2489C100.945 12.2489 100.351 12.4415 99.8779 12.8267C99.4046 13.2009 99.091 13.7017 98.9369 14.329H104.005C103.961 13.6577 103.719 13.1459 103.279 12.7937C102.838 12.4305 102.299 12.2489 101.661 12.2489ZM111.997 19.4632C111.348 19.4632 110.808 19.3311 110.379 19.067C109.961 18.7918 109.625 18.4341 109.372 17.9939C109.13 17.5537 108.954 17.0859 108.844 16.5907C108.734 16.0954 108.679 15.6277 108.679 15.1875C108.679 14.5932 108.728 14.0374 108.827 13.5201C108.937 13.0028 109.113 12.5461 109.355 12.1499C109.598 11.7537 109.933 11.4455 110.362 11.2254C110.792 11.0053 111.336 10.8952 111.997 10.8952C112.734 10.8952 113.389 11.0823 113.961 11.4565C114.545 11.8197 115.001 12.326 115.332 12.9753C115.662 13.6137 115.827 14.351 115.827 15.1875C115.827 16.0239 115.656 16.7668 115.315 17.4161C114.974 18.0545 114.512 18.5552 113.928 18.9184C113.356 19.2816 112.712 19.4632 111.997 19.4632ZM111.551 18.093C112.079 18.093 112.542 17.9719 112.938 17.7298C113.345 17.4767 113.659 17.1355 113.879 16.7063C114.11 16.266 114.225 15.7598 114.225 15.1875C114.225 14.34 113.989 13.6412 113.516 13.0909C113.053 12.5406 112.399 12.2655 111.551 12.2655C110.979 12.2655 110.489 12.3865 110.082 12.6286C109.686 12.8708 109.383 13.2119 109.174 13.6522C108.965 14.0924 108.86 14.6042 108.86 15.1875C108.86 15.7267 108.959 16.2165 109.157 16.6567C109.366 17.097 109.669 17.4491 110.065 17.7133C110.473 17.9664 110.968 18.093 111.551 18.093ZM108.86 7.75862V17.4987C108.86 17.7518 108.844 18.0545 108.811 18.4066C108.789 18.7588 108.767 19.056 108.745 19.2981H107.292V7.75862H108.86ZM58.3469 25.584C59.4585 25.584 60.3884 25.7271 61.1368 26.0133C61.8962 26.2884 62.5015 26.6736 62.9528 27.1689C63.415 27.6641 63.7452 28.2309 63.9433 28.8692C64.1414 29.5076 64.2404 30.1844 64.2404 30.8998C64.2404 31.6042 64.1304 32.281 63.9103 32.9304C63.7012 33.5797 63.36 34.1575 62.8867 34.6637C62.4245 35.17 61.8192 35.5717 61.0708 35.8689C60.3224 36.155 59.4144 36.2981 58.3469 36.2981H54.0547V25.584H58.3469ZM55.6395 34.8619H58.3304C59.1778 34.8619 59.8767 34.7518 60.427 34.5317C60.9773 34.3006 61.412 33.9979 61.7311 33.6237C62.0613 33.2385 62.2924 32.8093 62.4245 32.336C62.5676 31.8628 62.6391 31.3841 62.6391 30.8998C62.6391 30.4045 62.5676 29.9258 62.4245 29.4636C62.2924 29.0013 62.0613 28.5886 61.7311 28.2254C61.412 27.8512 60.9773 27.5596 60.427 27.3505C59.8767 27.1303 59.1778 27.0203 58.3304 27.0203H55.6395V34.8619ZM72.2317 33.6237H73.734C73.646 34.163 73.4369 34.6472 73.1067 35.0765C72.7765 35.5057 72.3418 35.8469 71.8025 36.1C71.2632 36.3531 70.6304 36.4797 69.904 36.4797C69.0456 36.4797 68.2807 36.2981 67.6093 35.9349C66.938 35.5717 66.4097 35.071 66.0245 34.4326C65.6393 33.7943 65.4467 33.0514 65.4467 32.204C65.4467 31.3455 65.6338 30.5971 66.008 29.9588C66.3822 29.3095 66.8995 28.8032 67.5598 28.44C68.2202 28.0768 68.9741 27.8952 69.8215 27.8952C70.713 27.8952 71.4613 28.0713 72.0667 28.4235C72.672 28.7757 73.1177 29.2985 73.4038 29.9918C73.701 30.6742 73.8221 31.5271 73.767 32.5507H67.015C67.0701 33.0459 67.2186 33.4861 67.4608 33.8713C67.7139 34.2565 68.0441 34.5592 68.4513 34.7793C68.8695 34.9994 69.3482 35.1095 69.8875 35.1095C70.4928 35.1095 70.9991 34.9719 71.4063 34.6968C71.8135 34.4216 72.0887 34.0639 72.2317 33.6237ZM69.838 29.2489C69.1226 29.2489 68.5283 29.4415 68.0551 29.8267C67.5818 30.2009 67.2682 30.7017 67.1141 31.329H72.1822C72.1382 30.6577 71.8961 30.1459 71.4558 29.7937C71.0156 29.4305 70.4763 29.2489 69.838 29.2489ZM74.8253 33.6237H76.278C76.333 34.0639 76.5311 34.4271 76.8723 34.7133C77.2135 34.9884 77.6922 35.126 78.3086 35.126C78.7048 35.126 79.0129 35.082 79.233 34.9939C79.4532 34.8949 79.6072 34.7628 79.6953 34.5977C79.7943 34.4326 79.8439 34.251 79.8439 34.0529C79.8439 33.7998 79.7778 33.6072 79.6458 33.4751C79.5137 33.3321 79.3266 33.2165 79.0845 33.1285C78.8423 33.0294 78.5562 32.9359 78.226 32.8478C77.8628 32.7488 77.4996 32.6332 77.1365 32.5011C76.7733 32.3691 76.4376 32.2095 76.1294 32.0224C75.8323 31.8353 75.5902 31.6042 75.4031 31.329C75.227 31.0429 75.1389 30.6962 75.1389 30.289C75.1389 29.9478 75.2105 29.6286 75.3535 29.3315C75.5076 29.0343 75.7222 28.7812 75.9974 28.5721C76.2835 28.352 76.6137 28.1869 76.9879 28.0768C77.3621 27.9558 77.7748 27.8952 78.226 27.8952C78.8533 27.8952 79.3816 28.0108 79.8108 28.2419C80.2401 28.462 80.5647 28.7757 80.7848 29.1829C81.016 29.5901 81.137 30.0579 81.148 30.5861H79.7613C79.6843 30.1239 79.5247 29.7882 79.2826 29.5791C79.0404 29.359 78.6773 29.2489 78.193 29.2489C77.7198 29.2489 77.3566 29.3425 77.1034 29.5296C76.8503 29.7167 76.7237 29.9698 76.7237 30.289C76.7237 30.5311 76.8118 30.7292 76.9879 30.8833C77.164 31.0264 77.4006 31.1529 77.6977 31.263C77.9949 31.373 78.3306 31.4886 78.7048 31.6097C79.0569 31.7307 79.3926 31.8573 79.7118 31.9894C80.042 32.1104 80.3336 32.259 80.5867 32.4351C80.8509 32.6002 81.0545 32.8203 81.1976 33.0954C81.3516 33.3596 81.4287 33.6897 81.4287 34.0859C81.4287 34.5702 81.3076 34.9939 81.0655 35.3571C80.8234 35.7093 80.4712 35.9844 80.0089 36.1825C79.5577 36.3806 79.0074 36.4797 78.3581 36.4797C77.7638 36.4797 77.2575 36.4082 76.8393 36.2651C76.4321 36.122 76.0854 35.9349 75.7993 35.7038C75.5241 35.4727 75.3095 35.2305 75.1554 34.9774C75.0124 34.7133 74.9133 34.4601 74.8583 34.218C74.8143 33.9759 74.8032 33.7778 74.8253 33.6237ZM84.7389 24.6596V26.3599H82.7744V24.6596H84.7389ZM82.9725 28.0603H84.5408V36.2981H82.9725V28.0603ZM89.8447 35.0104C89.1623 35.0104 88.535 34.8729 87.9627 34.5977C87.3904 34.3226 86.9337 33.9209 86.5925 33.3926C86.2623 32.8643 86.0972 32.226 86.0972 31.4776C86.0972 30.7402 86.2623 30.1074 86.5925 29.5791C86.9227 29.0398 87.3684 28.6271 87.9297 28.341C88.502 28.0438 89.1403 27.8952 89.8447 27.8952C90.0538 27.8952 90.2519 27.9118 90.439 27.9448C90.6261 27.9668 90.8077 28.0053 90.9838 28.0603H94.5826V29.5461C94.0874 29.5461 93.5866 29.4636 93.0804 29.2985C92.5851 29.1334 92.1504 28.9573 91.7762 28.7702L91.7267 28.6877C92.1009 28.8858 92.4255 29.1279 92.7007 29.414C92.9758 29.6892 93.1849 30.0028 93.328 30.355C93.4821 30.6962 93.5591 31.0814 93.5591 31.5106C93.5591 32.237 93.394 32.8643 93.0639 33.3926C92.7447 33.9209 92.299 34.3226 91.7267 34.5977C91.1654 34.8729 90.538 35.0104 89.8447 35.0104ZM92.3705 39.6328V39.2531C92.3705 38.6918 92.2164 38.2901 91.9083 38.048C91.6001 37.8059 91.1489 37.6848 90.5546 37.6848H88.6231C88.2158 37.6848 87.8692 37.6518 87.583 37.5858C87.2969 37.5197 87.0602 37.4207 86.8731 37.2886C86.686 37.1675 86.5485 37.0135 86.4604 36.8264C86.3724 36.6503 86.3284 36.4522 86.3284 36.2321C86.3284 35.8028 86.4604 35.4782 86.7246 35.2581C86.9887 35.0379 87.3244 34.9004 87.7316 34.8453C88.1388 34.7793 88.5515 34.7738 88.9697 34.8288L89.8447 35.0104C89.2174 35.0434 88.7386 35.104 88.4084 35.192C88.0783 35.2801 87.9132 35.4672 87.9132 35.7533C87.9132 35.9184 87.9792 36.0505 88.1113 36.1495C88.2434 36.2486 88.4305 36.2981 88.6726 36.2981H90.6866C91.3139 36.2981 91.8697 36.3751 92.354 36.5292C92.8492 36.6943 93.2344 36.9639 93.5096 37.3381C93.7957 37.7233 93.9388 38.2461 93.9388 38.9064V39.6328H92.3705ZM89.8447 33.6732C90.2409 33.6732 90.5986 33.5907 90.9177 33.4256C91.2479 33.2495 91.512 33.0019 91.7102 32.6827C91.9083 32.3526 92.0073 31.9563 92.0073 31.4941C92.0073 31.0209 91.9083 30.6192 91.7102 30.289C91.5231 29.9478 91.2644 29.6947 90.9342 29.5296C90.6041 29.3535 90.2409 29.2655 89.8447 29.2655C89.4485 29.2655 89.0798 29.3535 88.7386 29.5296C88.4084 29.6947 88.1443 29.9423 87.9462 30.2725C87.7481 30.6026 87.649 31.0099 87.649 31.4941C87.649 31.9563 87.7481 32.3526 87.9462 32.6827C88.1443 33.0019 88.4084 33.2495 88.7386 33.4256C89.0688 33.5907 89.4375 33.6732 89.8447 33.6732ZM95.839 28.0603H97.4238V36.2981H95.839V28.0603ZM100.56 27.8952C101.023 27.8952 101.441 27.9613 101.815 28.0933C102.189 28.2254 102.508 28.4235 102.773 28.6877C103.037 28.9408 103.24 29.2599 103.383 29.6451C103.537 30.0193 103.614 30.4486 103.614 30.9328V36.2981H102.046V31.2795C102.046 30.6302 101.887 30.1459 101.567 29.8267C101.259 29.4966 100.786 29.3315 100.148 29.3315C99.6524 29.3315 99.2012 29.447 98.794 29.6782C98.3868 29.9093 98.0511 30.2174 97.787 30.6026C97.5338 30.9768 97.3798 31.4006 97.3247 31.8738L97.3082 30.9658C97.3633 30.5256 97.4788 30.1184 97.6549 29.7442C97.842 29.37 98.0731 29.0453 98.3483 28.7702C98.6344 28.484 98.9646 28.2694 99.3388 28.1264C99.713 27.9723 100.12 27.8952 100.56 27.8952ZM105.078 33.6237H106.531C106.586 34.0639 106.784 34.4271 107.126 34.7133C107.467 34.9884 107.945 35.126 108.562 35.126C108.958 35.126 109.266 35.082 109.486 34.9939C109.706 34.8949 109.86 34.7628 109.948 34.5977C110.048 34.4326 110.097 34.251 110.097 34.0529C110.097 33.7998 110.031 33.6072 109.899 33.4751C109.767 33.3321 109.58 33.2165 109.338 33.1285C109.096 33.0294 108.809 32.9359 108.479 32.8478C108.116 32.7488 107.753 32.6332 107.39 32.5011C107.026 32.3691 106.691 32.2095 106.383 32.0224C106.085 31.8353 105.843 31.6042 105.656 31.329C105.48 31.0429 105.392 30.6962 105.392 30.289C105.392 29.9478 105.464 29.6286 105.607 29.3315C105.761 29.0343 105.975 28.7812 106.251 28.5721C106.537 28.352 106.867 28.1869 107.241 28.0768C107.615 27.9558 108.028 27.8952 108.479 27.8952C109.107 27.8952 109.635 28.0108 110.064 28.2419C110.493 28.462 110.818 28.7757 111.038 29.1829C111.269 29.5901 111.39 30.0579 111.401 30.5861H110.015C109.937 30.1239 109.778 29.7882 109.536 29.5791C109.294 29.359 108.93 29.2489 108.446 29.2489C107.973 29.2489 107.61 29.3425 107.357 29.5296C107.104 29.7167 106.977 29.9698 106.977 30.289C106.977 30.5311 107.065 30.7292 107.241 30.8833C107.417 31.0264 107.654 31.1529 107.951 31.263C108.248 31.373 108.584 31.4886 108.958 31.6097C109.31 31.7307 109.646 31.8573 109.965 31.9894C110.295 32.1104 110.587 32.259 110.84 32.4351C111.104 32.6002 111.308 32.8203 111.451 33.0954C111.605 33.3596 111.682 33.6897 111.682 34.0859C111.682 34.5702 111.561 34.9939 111.319 35.3571C111.077 35.7093 110.724 35.9844 110.262 36.1825C109.811 36.3806 109.261 36.4797 108.611 36.4797C108.017 36.4797 107.511 36.4082 107.093 36.2651C106.685 36.122 106.339 35.9349 106.052 35.7038C105.777 35.4727 105.563 35.2305 105.409 34.9774C105.266 34.7133 105.167 34.4601 105.111 34.218C105.067 33.9759 105.056 33.7778 105.078 33.6237Z" fill="white"/>
</svg>
