<svg width="165" height="60" viewBox="0 0 165 60" fill="none" xmlns="http://www.w3.org/2000/svg">
<path d="M35.7362 21.7803V21.7849L35.7339 21.7826L35.7362 21.7803Z" stroke="#EC1E24" stroke-width="0.194735" stroke-miterlimit="10"/>
<path d="M35.7365 21.7802H35.7346L35.7307 21.7841L28.9558 26.5668L22.6172 31.0418L9.43359 40.3483V11.1009C9.43359 7.78653 13.1706 5.85086 15.8774 7.76122L28.9558 16.9936L35.7346 21.7783H35.7365V21.7802Z" fill="#16ADE9"/>
<path d="M28.9558 35.516V48.1933C28.9558 51.6713 25.0358 53.7024 22.1946 51.6966L11.3459 44.0377C10.1463 43.1925 9.43359 41.8157 9.43359 40.3474L22.6172 31.041L28.9558 35.516Z" fill="#23EDE2"/>
<path d="M48.85 31.0414L42.5114 35.5164L37.3528 39.158C36.383 39.8435 35.0861 39.8435 34.1144 39.158L28.9539 35.5164L22.6152 31.0414L28.9539 26.5664L35.7287 21.7837H35.7326H35.7346L42.5094 26.5664L48.8481 31.0414H48.85Z" fill="#2732BC"/>
<path d="M35.7346 21.7826L35.73 21.7849V21.7803L35.7346 21.7826Z" stroke="#EC1E24" stroke-width="0.194735" stroke-miterlimit="10"/>
<path d="M62.0329 11.1009V40.3483L48.8493 31.0418L42.5107 26.5668L35.7358 21.7841H35.7339L35.73 21.7802H35.7339L42.5107 16.9936L55.5891 7.76122C58.2959 5.85086 62.0329 7.78653 62.0329 11.1009Z" fill="#6926DC"/>
<path d="M62.0335 40.3474C62.0335 41.8157 61.3207 43.1925 60.1212 44.0377L49.2724 51.6966C46.4332 53.7024 42.5112 51.6713 42.5112 48.1933V35.516L48.8499 31.041L62.0335 40.3474Z" fill="#1982DC"/>
<path d="M83.235 25.009H82.312L89.4933 11.6145H91.6544V26.2246H89.4933V15.0138L89.966 15.1264L83.9104 26.2246H81.6367L75.5811 15.1489L76.0538 15.0363V26.2246H73.8927V11.6145H76.0538L83.235 25.009ZM105.122 26.2246H102.984V14.9913H105.122V26.2246ZM103.096 20.9344L103.119 21.6097C103.104 21.8048 103.051 22.0975 102.961 22.4877C102.886 22.8629 102.751 23.2756 102.556 23.7258C102.376 24.176 102.121 24.6113 101.791 25.0315C101.475 25.4517 101.07 25.7969 100.575 26.067C100.08 26.3372 99.4794 26.4722 98.774 26.4722C98.2938 26.4722 97.7985 26.4047 97.2883 26.2696C96.793 26.1346 96.3353 25.9094 95.9151 25.5943C95.4948 25.2791 95.1572 24.8514 94.902 24.3111C94.6469 23.7558 94.5193 23.0655 94.5193 22.24V14.9913H96.6805V21.7898C96.6805 22.4802 96.7855 23.0204 96.9956 23.4107C97.2207 23.8009 97.5359 24.0785 97.9411 24.2436C98.3463 24.4087 98.8041 24.4912 99.3143 24.4912C100.095 24.4912 100.748 24.3036 101.273 23.9284C101.813 23.5382 102.233 23.073 102.533 22.5327C102.834 21.9774 103.021 21.4446 103.096 20.9344ZM107.614 14.9913H109.775V26.2246H107.614V14.9913ZM114.052 14.7662C114.683 14.7662 115.253 14.8562 115.763 15.0363C116.273 15.2164 116.709 15.4865 117.069 15.8467C117.429 16.1919 117.707 16.6271 117.902 17.1524C118.112 17.6627 118.217 18.248 118.217 18.9083V26.2246H116.078V19.3811C116.078 18.4956 115.861 17.8353 115.425 17.4C115.005 16.9498 114.36 16.7247 113.489 16.7247C112.814 16.7247 112.199 16.8823 111.644 17.1974C111.088 17.5126 110.63 17.9328 110.27 18.4581C109.925 18.9683 109.715 19.5461 109.64 20.1915L109.617 18.9533C109.692 18.353 109.85 17.7977 110.09 17.2875C110.345 16.7772 110.66 16.3345 111.036 15.9593C111.426 15.5691 111.876 15.2764 112.386 15.0813C112.897 14.8712 113.452 14.7662 114.052 14.7662ZM129.375 22.5777H131.424C131.304 23.3131 131.019 23.9734 130.569 24.5587C130.118 25.144 129.526 25.6093 128.79 25.9545C128.055 26.2996 127.192 26.4722 126.201 26.4722C125.031 26.4722 123.988 26.2246 123.072 25.7294C122.157 25.2341 121.436 24.5512 120.911 23.6808C120.386 22.8103 120.123 21.7973 120.123 20.6417C120.123 19.4711 120.378 18.4506 120.889 17.5801C121.399 16.6947 122.104 16.0043 123.005 15.5091C123.905 15.0138 124.933 14.7662 126.089 14.7662C127.304 14.7662 128.325 15.0063 129.15 15.4865C129.976 15.9668 130.584 16.6797 130.974 17.6252C131.379 18.5556 131.544 19.7187 131.469 21.1145H122.262C122.337 21.7898 122.539 22.3901 122.87 22.9154C123.215 23.4407 123.665 23.8534 124.22 24.1535C124.791 24.4537 125.443 24.6038 126.179 24.6038C127.004 24.6038 127.695 24.4162 128.25 24.041C128.805 23.6658 129.18 23.178 129.375 22.5777ZM126.111 16.6121C125.136 16.6121 124.325 16.8748 123.68 17.4C123.035 17.9103 122.607 18.5932 122.397 19.4486H129.308C129.248 18.5331 128.918 17.8353 128.317 17.355C127.717 16.8598 126.982 16.6121 126.111 16.6121ZM142.074 22.5777H144.123C144.003 23.3131 143.718 23.9734 143.267 24.5587C142.817 25.144 142.224 25.6093 141.489 25.9545C140.754 26.2996 139.891 26.4722 138.9 26.4722C137.73 26.4722 136.687 26.2246 135.771 25.7294C134.856 25.2341 134.135 24.5512 133.61 23.6808C133.085 22.8103 132.822 21.7973 132.822 20.6417C132.822 19.4711 133.077 18.4506 133.587 17.5801C134.098 16.6947 134.803 16.0043 135.704 15.5091C136.604 15.0138 137.632 14.7662 138.788 14.7662C140.003 14.7662 141.024 15.0063 141.849 15.4865C142.675 15.9668 143.282 16.6797 143.673 17.6252C144.078 18.5556 144.243 19.7187 144.168 21.1145H134.961C135.036 21.7898 135.238 22.3901 135.568 22.9154C135.914 23.4407 136.364 23.8534 136.919 24.1535C137.489 24.4537 138.142 24.6038 138.878 24.6038C139.703 24.6038 140.393 24.4162 140.949 24.041C141.504 23.6658 141.879 23.178 142.074 22.5777ZM138.81 16.6121C137.835 16.6121 137.024 16.8748 136.379 17.4C135.734 17.9103 135.306 18.5932 135.096 19.4486H142.007C141.947 18.5331 141.617 17.8353 141.016 17.355C140.416 16.8598 139.681 16.6121 138.81 16.6121ZM152.905 26.4497C152.019 26.4497 151.284 26.2696 150.699 25.9094C150.128 25.5343 149.671 25.0465 149.325 24.4462C148.995 23.8459 148.755 23.208 148.605 22.5327C148.455 21.8573 148.38 21.2195 148.38 20.6192C148.38 19.8088 148.447 19.0509 148.583 18.3455C148.733 17.6402 148.973 17.0173 149.303 16.4771C149.633 15.9368 150.091 15.5166 150.676 15.2164C151.261 14.9163 152.004 14.7662 152.905 14.7662C153.91 14.7662 154.803 15.0213 155.584 15.5316C156.379 16.0268 157.002 16.7172 157.452 17.6026C157.902 18.4731 158.127 19.4786 158.127 20.6192C158.127 21.7598 157.895 22.7728 157.43 23.6583C156.964 24.5287 156.334 25.2116 155.539 25.7068C154.758 26.2021 153.88 26.4497 152.905 26.4497ZM152.297 24.5813C153.017 24.5813 153.648 24.4162 154.188 24.086C154.743 23.7408 155.171 23.2756 155.471 22.6903C155.786 22.09 155.944 21.3996 155.944 20.6192C155.944 19.4636 155.621 18.5106 154.976 17.7602C154.345 17.0098 153.453 16.6346 152.297 16.6346C151.517 16.6346 150.849 16.7997 150.293 17.1299C149.753 17.4601 149.34 17.9253 149.055 18.5256C148.77 19.1259 148.628 19.8238 148.628 20.6192C148.628 21.3546 148.763 22.0224 149.033 22.6227C149.318 23.2231 149.731 23.7033 150.271 24.0635C150.826 24.4087 151.502 24.5813 152.297 24.5813ZM148.628 10.489V23.7708C148.628 24.116 148.605 24.5287 148.56 25.009C148.53 25.4892 148.5 25.8944 148.47 26.2246H146.489V10.489H148.628ZM79.7457 34.6145C81.2615 34.6145 82.5297 34.8096 83.5502 35.1998C84.5857 35.575 85.4111 36.1003 86.0265 36.7757C86.6568 37.451 87.107 38.2239 87.3772 39.0944C87.6473 39.9648 87.7824 40.8878 87.7824 41.8633C87.7824 42.8238 87.6323 43.7468 87.3321 44.6322C87.047 45.5177 86.5818 46.3056 85.9364 46.996C85.3061 47.6863 84.4807 48.2341 83.4601 48.6393C82.4396 49.0295 81.2015 49.2246 79.7457 49.2246H73.8927V34.6145H79.7457ZM76.0538 47.2661H79.7232C80.8788 47.2661 81.8318 47.116 82.5822 46.8159C83.3326 46.5007 83.9254 46.088 84.3606 45.5777C84.8108 45.0524 85.126 44.4671 85.3061 43.8218C85.5012 43.1765 85.5987 42.5236 85.5987 41.8633C85.5987 41.1879 85.5012 40.5351 85.3061 39.9048C85.126 39.2745 84.8108 38.7117 84.3606 38.2164C83.9254 37.7061 83.3326 37.3084 82.5822 37.0233C81.8318 36.7231 80.8788 36.5731 79.7232 36.5731H76.0538V47.2661ZM98.6796 45.5777H100.728C100.608 46.3131 100.323 46.9734 99.8727 47.5587C99.4225 48.144 98.8297 48.6093 98.0943 48.9545C97.3589 49.2996 96.496 49.4722 95.5055 49.4722C94.3349 49.4722 93.2918 49.2246 92.3763 48.7294C91.4609 48.2341 90.7405 47.5512 90.2152 46.6808C89.6899 45.8103 89.4273 44.7973 89.4273 43.6417C89.4273 42.4711 89.6824 41.4506 90.1927 40.5801C90.703 39.6947 91.4083 39.0043 92.3088 38.5091C93.2093 38.0138 94.2373 37.7662 95.3929 37.7662C96.6085 37.7662 97.6291 38.0063 98.4545 38.4865C99.2799 38.9668 99.8877 39.6797 100.278 40.6252C100.683 41.5556 100.848 42.7187 100.773 44.1145H91.5659C91.641 44.7898 91.8436 45.3901 92.1737 45.9154C92.5189 46.4407 92.9691 46.8534 93.5244 47.1535C94.0947 47.4537 94.7476 47.6038 95.4829 47.6038C96.3084 47.6038 96.9987 47.4162 97.554 47.041C98.1093 46.6658 98.4845 46.178 98.6796 45.5777ZM95.4154 39.6121C94.4399 39.6121 93.6295 39.8748 92.9842 40.4C92.3388 40.9103 91.9111 41.5932 91.701 42.4486H98.6121C98.552 41.5331 98.2219 40.8353 97.6216 40.355C97.0212 39.8598 96.2859 39.6121 95.4154 39.6121ZM102.216 45.5777H104.197C104.272 46.178 104.542 46.6733 105.008 47.0635C105.473 47.4387 106.126 47.6263 106.966 47.6263C107.506 47.6263 107.927 47.5663 108.227 47.4462C108.527 47.3111 108.737 47.131 108.857 46.9059C108.992 46.6808 109.06 46.4332 109.06 46.163C109.06 45.8178 108.97 45.5552 108.79 45.3751C108.61 45.18 108.354 45.0224 108.024 44.9024C107.694 44.7673 107.304 44.6397 106.854 44.5197C106.358 44.3846 105.863 44.227 105.368 44.0469C104.873 43.8668 104.415 43.6492 103.995 43.3941C103.589 43.139 103.259 42.8238 103.004 42.4486C102.764 42.0584 102.644 41.5857 102.644 41.0304C102.644 40.5651 102.741 40.1299 102.937 39.7247C103.147 39.3195 103.439 38.9743 103.815 38.6892C104.205 38.389 104.655 38.1639 105.165 38.0138C105.676 37.8487 106.238 37.7662 106.854 37.7662C107.709 37.7662 108.429 37.9238 109.015 38.2389C109.6 38.5391 110.043 38.9668 110.343 39.5221C110.658 40.0774 110.823 40.7152 110.838 41.4356H108.947C108.842 40.8052 108.625 40.3475 108.294 40.0624C107.964 39.7622 107.469 39.6121 106.809 39.6121C106.163 39.6121 105.668 39.7397 105.323 39.9948C104.978 40.25 104.805 40.5951 104.805 41.0304C104.805 41.3605 104.925 41.6307 105.165 41.8408C105.405 42.0359 105.728 42.2085 106.133 42.3586C106.538 42.5086 106.996 42.6662 107.506 42.8313C107.987 42.9964 108.444 43.169 108.88 43.3491C109.33 43.5142 109.728 43.7168 110.073 43.9569C110.433 44.182 110.711 44.4822 110.906 44.8573C111.116 45.2175 111.221 45.6678 111.221 46.208C111.221 46.8684 111.056 47.4462 110.726 47.9414C110.395 48.4217 109.915 48.7969 109.285 49.067C108.67 49.3372 107.919 49.4722 107.034 49.4722C106.223 49.4722 105.533 49.3747 104.963 49.1796C104.407 48.9845 103.935 48.7294 103.544 48.4142C103.169 48.099 102.877 47.7689 102.666 47.4237C102.471 47.0635 102.336 46.7183 102.261 46.3881C102.201 46.058 102.186 45.7878 102.216 45.5777ZM115.735 33.3539V35.6726H113.056V33.3539H115.735ZM113.326 37.9913H115.465V49.2246H113.326V37.9913ZM122.697 47.4687C121.767 47.4687 120.911 47.2811 120.131 46.9059C119.351 46.5307 118.728 45.9829 118.262 45.2626C117.812 44.5422 117.587 43.6717 117.587 42.6512C117.587 41.6457 117.812 40.7827 118.262 40.0624C118.713 39.327 119.321 38.7642 120.086 38.374C120.866 37.9688 121.737 37.7662 122.697 37.7662C122.982 37.7662 123.253 37.7887 123.508 37.8337C123.763 37.8637 124.01 37.9163 124.251 37.9913H129.158V40.0173C128.483 40.0173 127.8 39.9048 127.11 39.6797C126.434 39.4545 125.841 39.2144 125.331 38.9593L125.264 38.8467C125.774 39.1169 126.217 39.447 126.592 39.8372C126.967 40.2124 127.252 40.6402 127.447 41.1204C127.657 41.5857 127.762 42.1109 127.762 42.6962C127.762 43.6867 127.537 44.5422 127.087 45.2626C126.652 45.9829 126.044 46.5307 125.264 46.9059C124.498 47.2811 123.643 47.4687 122.697 47.4687ZM126.142 53.772V53.2542C126.142 52.4888 125.931 51.941 125.511 51.6108C125.091 51.2807 124.476 51.1156 123.665 51.1156H121.031C120.476 51.1156 120.003 51.0706 119.613 50.9805C119.223 50.8905 118.9 50.7554 118.645 50.5753C118.39 50.4102 118.202 50.2001 118.082 49.945C117.962 49.7049 117.902 49.4347 117.902 49.1346C117.902 48.5493 118.082 48.1065 118.443 47.8064C118.803 47.5062 119.26 47.3186 119.816 47.2436C120.371 47.1535 120.934 47.146 121.504 47.2211L122.697 47.4687C121.842 47.5137 121.189 47.5963 120.739 47.7163C120.289 47.8364 120.063 48.0915 120.063 48.4817C120.063 48.7068 120.153 48.8869 120.334 49.022C120.514 49.1571 120.769 49.2246 121.099 49.2246H123.845C124.701 49.2246 125.459 49.3297 126.119 49.5398C126.794 49.7649 127.32 50.1326 127.695 50.6428C128.085 51.1681 128.28 51.881 128.28 52.7815V53.772H126.142ZM122.697 45.6453C123.238 45.6453 123.725 45.5327 124.161 45.3076C124.611 45.0675 124.971 44.7298 125.241 44.2946C125.511 43.8443 125.646 43.304 125.646 42.6737C125.646 42.0284 125.511 41.4806 125.241 41.0304C124.986 40.5651 124.633 40.2199 124.183 39.9948C123.733 39.7547 123.238 39.6346 122.697 39.6346C122.157 39.6346 121.654 39.7547 121.189 39.9948C120.739 40.2199 120.379 40.5576 120.108 41.0079C119.838 41.4581 119.703 42.0134 119.703 42.6737C119.703 43.304 119.838 43.8443 120.108 44.2946C120.379 44.7298 120.739 45.0675 121.189 45.3076C121.639 45.5327 122.142 45.6453 122.697 45.6453ZM130.871 37.9913H133.032V49.2246H130.871V37.9913ZM137.31 37.7662C137.94 37.7662 138.51 37.8562 139.02 38.0363C139.531 38.2164 139.966 38.4865 140.326 38.8467C140.686 39.1919 140.964 39.6271 141.159 40.1524C141.369 40.6627 141.474 41.248 141.474 41.9083V49.2246H139.336V42.3811C139.336 41.4956 139.118 40.8353 138.683 40.4C138.263 39.9498 137.617 39.7247 136.747 39.7247C136.071 39.7247 135.456 39.8823 134.901 40.1974C134.346 40.5126 133.888 40.9328 133.528 41.4581C133.182 41.9683 132.972 42.5461 132.897 43.1915L132.875 41.9533C132.95 41.353 133.107 40.7977 133.348 40.2875C133.603 39.7772 133.918 39.3345 134.293 38.9593C134.683 38.5691 135.133 38.2764 135.644 38.0813C136.154 37.8712 136.709 37.7662 137.31 37.7662ZM143.471 45.5777H145.452C145.527 46.178 145.797 46.6733 146.262 47.0635C146.727 47.4387 147.38 47.6263 148.221 47.6263C148.761 47.6263 149.181 47.5663 149.481 47.4462C149.781 47.3111 149.991 47.131 150.112 46.9059C150.247 46.6808 150.314 46.4332 150.314 46.163C150.314 45.8178 150.224 45.5552 150.044 45.3751C149.864 45.18 149.609 45.0224 149.279 44.9024C148.948 44.7673 148.558 44.6397 148.108 44.5197C147.613 44.3846 147.117 44.227 146.622 44.0469C146.127 43.8668 145.669 43.6492 145.249 43.3941C144.844 43.139 144.514 42.8238 144.259 42.4486C144.018 42.0584 143.898 41.5857 143.898 41.0304C143.898 40.5651 143.996 40.1299 144.191 39.7247C144.401 39.3195 144.694 38.9743 145.069 38.6892C145.459 38.389 145.909 38.1639 146.42 38.0138C146.93 37.8487 147.493 37.7662 148.108 37.7662C148.963 37.7662 149.684 37.9238 150.269 38.2389C150.854 38.5391 151.297 38.9668 151.597 39.5221C151.912 40.0774 152.078 40.7152 152.093 41.4356H150.202C150.097 40.8052 149.879 40.3475 149.549 40.0624C149.219 39.7622 148.723 39.6121 148.063 39.6121C147.418 39.6121 146.922 39.7397 146.577 39.9948C146.232 40.25 146.059 40.5951 146.059 41.0304C146.059 41.3605 146.179 41.6307 146.42 41.8408C146.66 42.0359 146.982 42.2085 147.388 42.3586C147.793 42.5086 148.251 42.6662 148.761 42.8313C149.241 42.9964 149.699 43.169 150.134 43.3491C150.584 43.5142 150.982 43.7168 151.327 43.9569C151.687 44.182 151.965 44.4822 152.16 44.8573C152.37 45.2175 152.475 45.6678 152.475 46.208C152.475 46.8684 152.31 47.4462 151.98 47.9414C151.65 48.4217 151.17 48.7969 150.539 49.067C149.924 49.3372 149.174 49.4722 148.288 49.4722C147.478 49.4722 146.787 49.3747 146.217 49.1796C145.662 48.9845 145.189 48.7294 144.799 48.4142C144.424 48.099 144.131 47.7689 143.921 47.4237C143.726 47.0635 143.591 46.7183 143.516 46.3881C143.456 46.058 143.441 45.7878 143.471 45.5777Z" fill="white"/>
</svg>
